<?xml version="1.0" standalone="no"?>
<!DOCTYPE svg PUBLIC "-//W3C//DTD SVG 20010904//EN"
 "http://www.w3.org/TR/2001/REC-SVG-20010904/DTD/svg10.dtd">
<svg version="1.0" xmlns="http://www.w3.org/2000/svg"
 width="500.000000pt" height="500.000000pt" viewBox="0 0 500.000000 500.000000"
 preserveAspectRatio="xMidYMid meet">

<g transform="translate(0.000000,500.000000) scale(0.100000,-0.100000)"
fill="#000000" stroke="none">
<path d="M2350 4378 c-5 -13 -12 -79 -17 -148 l-8 -125 -18 70 c-10 39 -27
100 -38 138 -19 66 -21 67 -54 67 -19 0 -36 -4 -39 -8 -2 -4 5 -96 17 -205 18
-174 23 -197 38 -197 10 0 21 4 24 10 3 5 -1 73 -10 151 -9 78 -15 142 -13
144 2 2 21 -64 42 -146 21 -82 44 -149 50 -149 34 1 39 18 44 157 2 76 7 144
11 151 4 7 13 -52 20 -130 7 -78 15 -148 18 -154 2 -6 15 -9 28 -6 19 3 24 9
20 26 -2 11 -11 91 -20 176 -21 207 -19 200 -55 200 -22 0 -33 -6 -40 -22z"/>
<path d="M2549 4398 c0 -2 -6 -92 -12 -200 l-12 -198 40 -6 c70 -10 110 -2
113 24 3 20 0 22 -47 22 l-51 0 0 39 c0 21 3 53 6 70 6 29 9 31 50 31 40 0 44
2 44 25 0 23 -4 25 -45 25 l-45 0 0 38 c0 20 3 48 7 61 5 21 10 23 49 18 40
-4 44 -3 44 18 0 18 -7 24 -37 29 -38 6 -102 8 -104 4z"/>
<path d="M2903 4336 c-31 -23 -93 -231 -93 -314 0 -50 35 -82 87 -82 48 0 68
14 86 59 22 53 67 233 67 265 0 62 -96 108 -147 72z m86 -54 c7 -13 1 -52 -20
-137 -17 -65 -35 -127 -40 -137 -13 -24 -56 -24 -64 1 -6 21 50 258 67 278 15
19 46 16 57 -5z"/>
<path d="M1962 4323 c-13 -3 -26 -11 -28 -18 -5 -13 28 -311 42 -376 4 -21 10
-26 25 -22 28 8 29 14 20 72 -8 50 -7 53 16 62 37 14 38 13 63 -41 22 -48 40
-59 66 -42 12 8 -158 373 -173 371 -4 -1 -18 -4 -31 -6z m82 -224 c-3 -5 -13
-9 -23 -9 -15 0 -20 11 -25 51 -4 29 -9 66 -12 83 -3 21 7 9 31 -42 19 -41 33
-78 29 -83z"/>
<path d="M3106 4123 c-36 -87 -66 -170 -66 -185 0 -36 51 -78 93 -78 57 1 63
10 152 217 51 118 54 129 38 140 -9 7 -20 13 -24 13 -4 0 -30 -55 -59 -122
-75 -176 -87 -198 -110 -198 -11 0 -24 9 -30 19 -8 15 4 51 57 175 36 86 64
158 62 160 -2 2 -13 6 -25 10 -19 6 -27 -9 -88 -151z"/>
<path d="M1658 4200 c-26 -26 -29 -36 -24 -64 9 -50 111 -261 137 -285 31 -29
65 -26 99 8 16 16 31 24 32 19 2 -5 11 -3 21 5 17 12 16 18 -27 106 -25 52
-48 96 -50 98 -5 6 -76 -29 -76 -38 0 -25 13 -38 29 -29 15 7 21 1 39 -36 27
-55 28 -80 3 -93 -26 -14 -41 5 -101 129 -55 111 -61 153 -23 158 13 2 27 -5
36 -18 11 -16 21 -20 36 -15 28 8 26 26 -4 59 -35 38 -87 36 -127 -4z"/>
<path d="M3411 4157 c-17 -17 -13 -35 9 -47 11 -6 20 -16 20 -21 0 -6 -38 -74
-85 -150 -47 -77 -85 -142 -85 -147 0 -4 9 -13 20 -19 18 -12 26 -1 110 137
51 83 95 150 99 150 4 0 16 -6 27 -14 20 -15 44 -5 44 19 0 20 -146 105 -159
92z"/>
<path d="M1344 4004 c-21 -15 -44 -31 -51 -36 -11 -9 47 -91 208 -297 l27 -34
40 29 c59 42 76 76 62 119 -11 34 -138 209 -169 232 -26 20 -76 15 -117 -13z
m160 -124 c43 -56 76 -111 76 -123 0 -24 -17 -47 -34 -47 -9 1 -98 114 -175
221 -17 24 0 49 35 49 17 0 41 -24 98 -100z"/>
<path d="M3604 3982 c-47 -38 -57 -67 -50 -148 6 -62 4 -80 -11 -105 -27 -45
-83 -52 -83 -11 0 10 7 27 15 39 13 18 12 22 -4 37 -18 16 -20 16 -40 -10 -31
-40 -28 -87 10 -118 45 -38 83 -34 130 12 47 48 55 80 40 156 -11 54 -11 62 7
85 36 49 90 35 57 -15 -16 -25 -16 -27 3 -47 l21 -20 20 34 c28 45 26 71 -5
103 -31 31 -78 34 -110 8z"/>
<path d="M1174 3840 c-52 -20 -69 -86 -34 -130 18 -24 20 -24 37 -8 13 14 15
21 5 30 -17 17 -15 55 4 62 10 4 28 -6 51 -29 34 -34 35 -36 19 -59 -14 -22
-14 -25 0 -37 12 -10 20 -10 35 -1 10 7 25 12 32 12 19 0 87 -73 87 -93 0 -26
-33 -39 -57 -22 -18 13 -22 12 -37 -4 -16 -18 -16 -20 6 -35 37 -26 82 -21
112 15 41 48 35 83 -24 142 -40 39 -55 48 -75 45 -20 -4 -25 -1 -25 14 0 23
-67 94 -95 102 -11 2 -30 1 -41 -4z"/>
<path d="M3794 3801 c-53 -32 -211 -190 -216 -215 -8 -39 17 -84 56 -102 50
-24 77 -10 196 105 122 117 132 141 77 196 -40 40 -68 44 -113 16z m74 -43
c24 -24 10 -51 -63 -120 -108 -102 -134 -119 -156 -107 -11 5 -19 18 -19 29 0
26 193 210 220 210 3 0 11 -5 18 -12z"/>
<path d="M3895 3534 c-77 -52 -146 -102 -152 -111 -23 -30 -15 -78 16 -112 48
-51 68 -45 264 87 117 79 118 79 100 101 l-18 21 -143 -95 c-122 -81 -146 -93
-163 -84 -43 22 -19 51 120 145 74 50 136 95 138 100 2 6 -2 17 -9 26 -12 14
-29 5 -153 -78z"/>
<path d="M1223 3427 c-23 -29 -22 -36 12 -57 20 -12 37 -21 38 -19 2 2 8 11
15 20 10 14 7 20 -22 42 -26 20 -36 24 -43 14z"/>
<path d="M830 3380 c-16 -9 -67 -107 -59 -114 9 -9 351 -177 354 -174 1 2 12
22 24 45 26 52 27 104 4 125 -34 30 -106 60 -131 55 -19 -4 -31 2 -46 20 -33
43 -109 65 -146 43z m88 -60 c32 -20 40 -42 23 -68 -7 -11 -19 -9 -60 12 -56
29 -56 29 -41 57 14 24 36 24 78 -1z m158 -70 c48 -24 57 -40 44 -75 l-10 -25
-65 32 c-36 18 -65 37 -65 42 0 13 31 46 43 46 6 0 30 -9 53 -20z"/>
<path d="M4003 3287 c-95 -45 -173 -85 -173 -88 0 -3 6 -13 13 -23 13 -17 18
-16 93 18 73 34 79 36 91 19 8 -9 12 -22 10 -28 -2 -5 -35 -27 -75 -48 -71
-37 -80 -49 -63 -75 6 -11 23 -6 80 22 39 20 77 45 83 56 9 14 24 20 51 20 43
0 112 31 121 55 16 43 -17 156 -46 154 -7 -1 -91 -38 -185 -82z m187 -7 c4
-30 -1 -40 -30 -55 -40 -21 -77 -19 -90 5 -9 17 -4 23 47 49 58 29 70 29 73 1z"/>
<path d="M692 3082 c-6 -20 -10 -37 -9 -37 1 -1 83 -43 181 -94 136 -70 181
-89 187 -79 17 26 8 38 -42 64 -43 21 -50 29 -45 47 3 12 6 26 6 30 0 5 29 6
64 2 60 -7 63 -6 69 16 3 13 5 24 3 26 -1 1 -81 14 -177 28 -96 13 -186 27
-200 29 -23 4 -27 0 -37 -32z m177 -38 c40 -5 51 -10 51 -25 0 -31 -16 -30
-91 7 -50 23 -64 33 -43 30 17 -3 54 -8 83 -12z"/>
<path d="M4115 3065 c-60 -18 -122 -38 -137 -45 -78 -36 -47 -160 40 -160 49
0 66 12 57 39 -6 18 -12 21 -40 15 -27 -5 -35 -2 -44 14 -8 16 -8 24 3 34 17
18 264 91 282 84 25 -9 16 -46 -13 -58 -16 -7 -29 -13 -31 -14 -1 -1 2 -13 8
-28 l10 -27 43 23 c38 21 42 27 45 66 3 34 -2 47 -22 67 -33 33 -64 32 -201
-10z"/>
<path d="M4310 2860 c-19 -4 -101 -20 -182 -35 -142 -26 -148 -28 -148 -51 0
-18 5 -24 23 -24 32 1 366 65 373 72 9 10 -6 48 -19 47 -7 -1 -28 -5 -47 -9z"/>
<path d="M987 2799 c-3 -22 -8 -43 -11 -46 -3 -4 -79 6 -168 21 -90 14 -169
26 -175 26 -7 0 -13 -11 -13 -25 0 -14 2 -25 4 -25 2 0 82 -13 178 -30 95 -16
183 -30 194 -30 19 0 23 9 33 65 13 71 10 85 -18 85 -14 0 -20 -10 -24 -41z"/>
<path d="M4240 2704 c-14 -2 -73 -6 -132 -9 -107 -7 -108 -7 -108 -32 l0 -25
88 6 c48 4 114 9 147 11 56 5 51 2 -85 -43 l-145 -48 3 -30 c2 -16 4 -30 5
-30 1 -1 88 4 192 12 105 7 193 13 198 14 4 0 7 12 7 26 0 24 -2 25 -42 20
-24 -3 -86 -8 -138 -10 l-95 -5 90 30 c182 61 175 58 175 90 l0 29 -67 -1
c-38 -1 -79 -3 -93 -5z"/>
<path d="M793 2543 c-8 -3 -13 -23 -13 -49 0 -40 2 -44 25 -44 18 0 25 5 25
20 0 18 7 20 60 20 48 0 61 -4 70 -19 7 -15 6 -23 -6 -35 -12 -13 -41 -16
-132 -18 -148 -2 -155 -1 -169 18 -17 23 -5 44 28 51 22 4 29 11 29 29 0 20
-5 24 -29 24 -47 0 -81 -34 -81 -81 0 -79 33 -99 159 -98 137 1 222 13 237 34
19 26 18 74 -3 97 -14 16 -14 18 0 18 10 0 13 6 10 20 -5 18 -13 20 -102 19
-53 0 -102 -3 -108 -6z"/>
<path d="M4011 2414 c-25 -32 -26 -52 -5 -82 14 -20 14 -22 0 -22 -9 0 -16 -8
-16 -19 0 -16 10 -20 73 -25 39 -4 88 -9 108 -12 32 -5 37 -2 43 18 10 39 7
66 -10 72 -20 8 -34 -1 -34 -21 0 -13 -9 -15 -51 -10 -73 9 -100 37 -64 67 12
10 41 10 142 1 141 -14 166 -22 161 -54 -2 -17 -11 -23 -35 -25 -29 -3 -33 -7
-33 -34 0 -30 1 -30 36 -25 20 3 45 14 55 23 41 37 31 121 -18 143 -29 13
-180 31 -270 31 -55 0 -64 -3 -82 -26z"/>
<path d="M813 2282 c-186 -34 -193 -36 -193 -59 0 -29 3 -29 155 1 66 13 121
23 122 22 1 -1 -56 -28 -127 -61 -106 -48 -130 -62 -130 -79 0 -45 7 -45 211
-8 192 35 195 36 191 59 -5 28 2 28 -152 -1 -69 -13 -126 -22 -128 -21 -1 1
56 28 128 61 121 54 130 60 130 85 0 16 -3 30 -7 32 -5 2 -95 -12 -200 -31z"/>
<path d="M3973 2125 c-31 -22 -49 -85 -34 -114 36 -66 143 -81 216 -31 62 43
135 37 135 -11 0 -18 -5 -20 -37 -17 -34 3 -38 1 -41 -23 -3 -22 2 -27 26 -32
43 -9 71 2 87 34 30 58 15 99 -45 123 -57 23 -74 21 -147 -21 -65 -36 -67 -36
-107 -22 -33 11 -41 19 -41 39 0 22 4 25 39 26 32 0 41 5 48 24 10 28 12 26
-37 34 -29 5 -46 2 -62 -9z"/>
<path d="M870 2020 c-182 -56 -202 -67 -182 -98 6 -9 52 1 198 46 165 51 189
61 186 78 -2 10 -7 22 -10 25 -4 4 -90 -19 -192 -51z"/>
<path d="M1003 1950 c-20 -8 -21 -12 -12 -34 10 -22 14 -23 41 -14 34 12 63
-7 53 -34 -6 -16 -223 -117 -259 -121 -10 -1 -23 6 -30 16 -9 15 -6 22 18 41
21 18 27 29 21 45 -8 26 -14 26 -56 -2 -35 -23 -45 -51 -35 -93 8 -32 45 -64
74 -64 24 0 247 91 290 118 62 40 24 153 -51 151 -18 0 -42 -4 -54 -9z"/>
<path d="M3875 1889 c-4 -12 -3 -25 2 -29 4 -5 76 -39 160 -75 l151 -67 -10
-30 c-8 -24 -8 -32 3 -39 23 -15 31 -6 67 75 27 63 31 80 20 87 -23 15 -37 10
-44 -16 -3 -14 -10 -25 -15 -25 -5 0 -79 32 -165 70 -86 39 -157 70 -159 70
-2 0 -7 -9 -10 -21z"/>
<path d="M1107 1744 c-37 -24 -72 -55 -78 -68 -8 -16 -17 -22 -30 -19 -32 9
-109 -36 -126 -73 -16 -32 -15 -35 14 -91 17 -32 37 -57 44 -55 6 2 86 48 175
103 146 90 163 103 153 120 -13 25 -27 24 -69 -4 -19 -13 -52 -33 -73 -46
l-37 -23 -9 24 c-12 34 -6 43 65 87 68 43 71 48 52 73 -12 14 -21 11 -81 -28z
m-76 -155 c13 -24 10 -27 -53 -64 l-48 -27 -9 24 c-11 30 1 51 41 71 44 22 55
21 69 -4z"/>
<path d="M3801 1734 c-13 -9 -29 -32 -37 -50 -18 -42 -6 -74 38 -106 51 -38
268 -171 272 -167 30 37 27 41 -103 122 -155 97 -174 113 -160 138 5 11 19 19
31 19 12 0 82 -38 156 -85 109 -70 137 -84 148 -74 8 7 14 18 12 25 -4 19
-287 194 -313 194 -11 0 -31 -7 -44 -16z"/>
<path d="M3656 1535 c-21 -25 -40 -61 -43 -81 -5 -33 -2 -39 58 -98 35 -34 88
-81 117 -104 74 -58 100 -57 164 7 l50 50 -84 73 c-46 40 -115 101 -154 136
l-72 62 -36 -45z m155 -131 c60 -53 109 -99 109 -103 0 -4 -9 -16 -19 -25 -25
-23 -43 -14 -139 72 -92 82 -107 103 -92 131 6 12 15 21 21 21 6 0 60 -43 120
-96z"/>
<path d="M1137 1454 c-70 -58 -129 -110 -132 -115 -4 -5 0 -18 8 -29 13 -19
20 -15 144 90 72 61 138 110 146 110 9 0 21 -9 27 -21 15 -26 13 -28 -133
-152 -65 -55 -116 -104 -114 -110 2 -6 10 -15 19 -20 12 -8 43 14 145 101 72
61 133 119 137 128 22 56 -25 124 -87 124 -28 0 -54 -17 -160 -106z"/>
<path d="M3510 1385 c-15 -18 -12 -23 140 -188 97 -107 117 -124 133 -115 10
5 17 16 15 23 -4 17 -256 295 -267 295 -5 0 -14 -7 -21 -15z"/>
<path d="M1423 1377 c-21 -12 -152 -158 -186 -207 -41 -59 4 -140 79 -140 42
0 76 30 187 165 68 83 74 119 28 166 -32 31 -70 37 -108 16z m77 -52 c19 -23
5 -46 -89 -152 -83 -94 -111 -110 -130 -75 -12 23 -2 40 72 127 102 118 121
131 147 100z"/>
<path d="M3393 1291 c-72 -45 -70 -84 13 -202 91 -130 120 -159 160 -159 50 0
94 42 94 90 0 31 -13 56 -79 147 -43 60 -85 114 -92 120 -28 23 -63 24 -96 4z
m74 -63 c42 -48 143 -196 143 -210 0 -25 -28 -42 -50 -32 -20 10 -170 211
-170 229 0 16 22 35 40 35 9 0 26 -10 37 -22z"/>
<path d="M1603 1226 c-16 -14 -38 -43 -48 -66 -17 -37 -17 -46 -5 -88 22 -80
23 -101 6 -128 -12 -17 -25 -24 -39 -22 -22 3 -24 13 -12 55 5 16 1 24 -14 32
-18 10 -22 7 -36 -18 -21 -42 -19 -68 10 -96 27 -28 78 -33 106 -12 24 18 59
79 59 101 0 11 -7 43 -16 71 -9 29 -14 63 -11 76 8 30 43 69 62 69 25 0 35
-34 20 -63 -12 -24 -12 -28 7 -42 19 -13 23 -12 34 3 20 26 27 77 15 101 -13
24 -61 51 -90 51 -11 0 -33 -11 -48 -24z"/>
<path d="M3168 1149 c-16 -9 -16 -12 -1 -44 17 -36 28 -41 53 -25 12 8 12 13
-3 44 -18 39 -23 41 -49 25z"/>
<path d="M1788 1013 c-33 -70 -66 -143 -74 -161 -13 -33 -14 -33 -43 -17 -29
14 -31 14 -41 -6 -7 -11 -10 -22 -8 -25 13 -13 161 -73 169 -69 18 12 9 42
-16 53 -29 14 -32 4 54 186 34 70 61 134 61 141 0 11 -20 25 -36 25 -3 0 -32
-57 -66 -127z"/>
<path d="M3003 1083 c-20 -7 -17 -20 42 -183 30 -84 55 -154 55 -156 0 -2 -13
-10 -29 -16 -24 -11 -28 -16 -20 -35 l8 -23 83 31 c45 16 84 31 85 33 7 7 -12
46 -21 43 -55 -21 -49 -29 -112 148 -32 91 -63 165 -69 164 -5 0 -16 -3 -22
-6z"/>
<path d="M1995 1048 c-20 -18 -37 -59 -76 -187 -27 -90 -48 -165 -47 -167 2
-1 14 -4 27 -6 23 -3 27 4 71 153 26 86 50 161 54 168 10 16 41 14 56 -4 11
-13 5 -43 -34 -172 -26 -85 -45 -162 -42 -169 3 -8 14 -14 24 -14 15 0 27 27
65 154 61 202 61 232 -4 255 -46 16 -65 14 -94 -11z"/>
<path d="M2848 1035 c-3 -3 3 -47 13 -97 11 -50 18 -92 17 -93 -2 -1 -19 -5
-39 -9 l-35 -6 -18 95 c-17 90 -20 95 -40 89 -11 -4 -23 -8 -25 -10 -2 -2 14
-91 35 -199 l39 -196 25 6 c14 4 26 7 27 8 0 1 -6 32 -14 70 -18 80 -14 93 26
99 33 5 30 10 51 -94 10 -52 14 -58 36 -58 13 0 24 3 24 8 1 4 -16 94 -37 200
-34 177 -39 192 -59 192 -11 0 -23 -2 -26 -5z"/>
<path d="M2245 1009 c-35 -18 -45 -45 -65 -186 -17 -119 -17 -140 -5 -169 23
-56 94 -71 140 -31 23 19 29 37 46 147 24 161 24 183 -3 214 -26 28 -82 41
-113 25z m70 -55 c10 -10 14 -26 11 -43 -3 -14 -11 -70 -17 -125 -14 -104 -32
-145 -63 -133 -9 4 -19 14 -23 24 -8 22 25 263 39 280 14 18 33 16 53 -3z"/>
<path d="M2543 993 c-18 -2 -33 -8 -33 -13 0 -5 -3 -15 -6 -23 -4 -12 5 -15
48 -13 l53 1 3 -66 c3 -71 -3 -78 -64 -79 -17 0 -20 -5 -17 -23 4 -20 10 -23
46 -23 l42 1 3 -57 3 -58 -46 0 c-41 0 -45 -2 -45 -25 0 -24 2 -25 63 -25 34
0 67 4 74 8 8 5 8 56 0 205 l-10 197 -41 -2 c-23 0 -56 -3 -73 -5z"/>
</g>
</svg>
