<?xml version="1.0" standalone="no"?>
<!DOCTYPE svg PUBLIC "-//W3C//DTD SVG 20010904//EN"
 "http://www.w3.org/TR/2001/REC-SVG-20010904/DTD/svg10.dtd">
<svg version="1.0" xmlns="http://www.w3.org/2000/svg"
 width="457.000000pt" height="680.000000pt" viewBox="0 0 457.000000 680.000000"
 preserveAspectRatio="xMidYMid meet">

<g transform="translate(0.000000,680.000000) scale(0.100000,-0.100000)"
fill="#000000" stroke="none">
<path d="M2115 5030 c-243 -24 -447 -120 -606 -286 -113 -118 -173 -219 -234
-395 -110 -315 -157 -691 -98 -791 27 -46 72 -74 132 -81 100 -12 110 -28 122
-207 10 -145 34 -236 83 -307 45 -66 93 -97 221 -143 125 -46 166 -70 199
-121 43 -64 57 -132 66 -334 5 -104 14 -244 20 -310 5 -66 10 -145 10 -175 l0
-55 -204 4 c-227 3 -243 0 -291 -63 -51 -67 -42 -150 24 -234 l39 -49 -35 -27
c-92 -74 -96 -163 -12 -252 l29 -30 -26 -25 c-63 -59 -73 -137 -24 -193 43
-49 86 -66 168 -66 38 0 97 -3 131 -6 l62 -7 110 -127 109 -127 182 -8 181 -7
119 119 118 120 137 6 c120 6 141 10 179 32 117 69 136 164 48 245 l-45 41 36
40 c43 48 55 77 55 130 0 32 -7 47 -41 84 l-41 45 37 41 c87 96 87 207 0 274
-33 25 -36 25 -221 25 l-187 0 7 203 c9 280 23 451 41 522 22 85 65 150 183
278 162 176 269 354 346 575 63 181 81 286 80 467 -1 105 -6 177 -15 210 -12
42 -12 56 -1 90 63 189 -28 421 -235 597 -171 145 -370 236 -583 267 -113 16
-274 20 -375 11z m397 -50 c246 -50 439 -151 596 -310 121 -123 181 -253 182
-392 0 -115 -6 -114 -91 15 -59 90 -147 168 -242 215 -113 55 -216 73 -517 93
-603 40 -942 -90 -1001 -383 -26 -128 56 -251 211 -315 163 -68 446 -100 785
-89 397 12 634 74 770 200 27 26 54 45 61 42 26 -10 33 -237 10 -377 -39 -242
-148 -518 -266 -674 -28 -37 -89 -109 -135 -161 -143 -157 -193 -250 -214
-394 -18 -126 -31 -325 -31 -488 l0 -155 -197 6 c-108 4 -233 7 -278 7 l-81 0
-17 268 c-33 513 -39 551 -98 637 -32 48 -90 82 -214 125 -109 39 -157 69
-195 122 -43 59 -68 149 -84 308 -21 195 -37 220 -155 239 -73 12 -97 29 -111
80 -33 118 10 449 90 693 142 434 397 655 813 708 101 12 294 3 409 -20z m208
-430 c156 -24 293 -86 384 -175 86 -84 156 -214 142 -268 -7 -31 -74 -98 -131
-131 -62 -37 -205 -82 -320 -103 -150 -27 -775 -26 -920 1 -260 48 -374 115
-406 239 -24 97 9 197 93 280 87 86 210 138 393 166 80 13 670 6 765 -9z"/>
<path d="M1790 4220 c0 -163 1 -170 20 -170 18 0 20 7 20 80 0 63 3 80 14 80
32 0 46 -30 46 -96 0 -57 2 -64 20 -64 18 0 20 7 20 72 0 50 -5 76 -15 88 -14
15 -14 18 0 30 10 8 15 30 15 65 0 68 -18 85 -88 85 l-52 0 0 -170z m88 128
c7 -7 12 -28 12 -48 0 -40 -14 -60 -42 -60 -15 0 -18 9 -18 60 0 51 3 60 18
60 10 0 23 -5 30 -12z"/>
<path d="M1980 4220 l0 -170 65 0 c58 0 65 2 65 20 0 17 -7 20 -45 20 l-45 0
0 60 0 60 40 0 c33 0 40 3 40 20 0 17 -7 20 -40 20 l-40 0 0 50 0 50 40 0 c33
0 40 3 40 20 0 18 -7 20 -60 20 l-60 0 0 -170z"/>
<path d="M2185 4358 c-3 -18 -16 -95 -29 -170 l-23 -138 23 0 c20 0 24 6 30
50 6 47 8 50 35 50 25 0 29 -4 34 -37 10 -58 13 -63 36 -63 18 0 21 4 16 28
-3 15 -16 91 -28 170 l-23 142 -33 0 c-28 0 -33 -4 -38 -32z m54 -140 c1 -22
-4 -28 -20 -28 -20 0 -21 4 -15 48 4 26 10 61 13 77 7 28 8 26 14 -20 4 -27 8
-62 8 -77z"/>
<path d="M2340 4220 l0 -170 65 0 c58 0 65 2 65 20 0 17 -7 20 -40 20 l-40 0
0 150 0 150 -25 0 -25 0 0 -170z"/>
<path d="M2500 4220 l0 -170 25 0 25 0 0 170 0 170 -25 0 -25 0 0 -170z"/>
<path d="M2572 4373 c2 -11 14 -19 31 -21 l27 -3 0 -150 c0 -142 1 -149 20
-149 19 0 20 7 20 150 l0 150 30 0 c23 0 30 4 30 20 0 18 -7 20 -81 20 -71 0
-80 -2 -77 -17z"/>
<path d="M2750 4388 c0 -2 14 -46 30 -98 21 -68 30 -115 30 -167 0 -71 1 -73
25 -73 24 0 25 2 25 68 0 46 10 96 30 162 17 51 30 98 30 103 0 4 -10 7 -22 5
-18 -2 -25 -15 -39 -71 -9 -38 -19 -70 -21 -73 -3 -2 -12 30 -22 71 -16 68
-20 75 -42 75 -13 0 -24 -1 -24 -2z"/>
</g>
</svg>
